<svg width="109" height="22" viewBox="0 0 109 22" fill="none" xmlns="http://www.w3.org/2000/svg">
<g clip-path="url(#clip0_10_115)">
<path d="M1.61247 15.1601C0.990665 15.1601 0.66496 14.8344 0.66496 14.183V13.1763C0.65854 12.9913 0.6893 12.8068 0.755417 12.6339C0.821534 12.461 0.921665 12.3031 1.04989 12.1696L7.68246 4.82636H1.76052C1.1091 4.82636 0.783398 4.50066 0.783398 3.87885V1.59891C0.783398 0.977103 1.1091 0.651398 1.76052 0.651398H14.1078C14.7296 0.651398 15.0553 0.977103 15.0553 1.59891V2.72407C15.0526 3.0951 14.9159 3.45265 14.6703 3.7308L8.21543 10.9482H14.0782C14.7296 10.9482 15.0553 11.2739 15.0553 11.9253V14.1756C15.0553 14.827 14.7296 15.1527 14.0782 15.1527L1.61247 15.1601Z" fill="url(#paint0_linear_10_115)"/>
<path d="M18.8453 13.5316C17.4833 12.0808 16.8096 10.1857 16.8096 7.90579C16.8096 5.62584 17.4907 3.76043 18.8453 2.30956C20.1999 0.85868 21.9913 0.118439 24.1454 0.118439C26.0997 0.118439 27.6098 0.740239 28.7053 1.95424H28.7646V1.59892C28.7646 0.97712 29.0903 0.651414 29.7417 0.651414H33.0302C33.6502 0.651414 33.9777 0.97712 33.9777 1.59892V14.183C33.9777 14.8345 33.6502 15.1602 33.0302 15.1602H29.7417C29.0903 15.1602 28.7646 14.8345 28.7646 14.183V13.8573H28.7053C27.6098 15.0713 26.0701 15.6931 24.1454 15.6931C21.9839 15.6931 20.2074 14.9825 18.8453 13.5316ZM25.3002 11.6366C25.7504 11.6544 26.199 11.5735 26.6146 11.3996C27.0302 11.2257 27.4027 10.963 27.706 10.6299C28.3278 9.94885 28.6313 9.03095 28.6313 7.90579C28.6313 6.78062 28.3352 5.89233 27.706 5.2113C27.398 4.88418 27.0264 4.62351 26.6139 4.44534C26.2015 4.26717 25.7569 4.17526 25.3076 4.17526C24.8583 4.17526 24.4138 4.26717 24.0013 4.44534C23.5889 4.62351 23.2172 4.88418 22.9092 5.2113C22.2874 5.89233 21.9839 6.81023 21.9839 7.90579C21.9839 9.00134 22.28 9.91924 22.9092 10.6003C23.2092 10.9355 23.5783 11.2018 23.9911 11.3807C24.4038 11.5596 24.8505 11.6469 25.3002 11.6366V11.6366Z" fill="url(#paint1_linear_10_115)"/>
<path d="M38.1804 15.1602C37.5586 15.1602 37.2329 14.8345 37.2329 14.183V1.59892C37.2329 0.977117 37.5586 0.651411 38.1804 0.651411H41.4671C42.1185 0.651411 42.4442 0.977117 42.4442 1.59892V2.27439H42.5034C43.3325 0.823516 44.6057 0.112885 46.3231 0.112885C46.4711 0.112885 46.7672 0.142496 47.1522 0.172105C47.6851 0.231325 47.9516 0.557031 47.9516 1.14922V4.19902C47.9516 4.64316 47.8924 4.82082 47.6555 4.93926C47.5075 5.08731 46.8857 4.96887 46.3231 4.96887C43.9839 4.96887 42.6219 6.39014 42.6219 8.85514V14.1849C42.6219 14.8363 42.2962 15.162 41.6448 15.162L38.1804 15.1602Z" fill="url(#paint2_linear_10_115)"/>
<path d="M52.7243 0.532972C52.1025 0.532972 51.6899 0.858677 51.5233 1.48048L46.2787 21.0525C46.1121 21.6743 46.3509 22 46.9727 22H47.2725L53.0908 0.532972H52.7243ZM66.4632 2.19852C65.4898 0.747642 63.9131 0.00740021 61.7516 0.00740021C59.8948 -0.00234756 58.0966 0.657272 56.6865 1.86541H56.6273L56.7309 1.48048C56.8975 0.858677 56.6587 0.532972 56.0073 0.532972H53.6682L47.848 22H50.4388C50.7245 22.0204 51.0076 21.9352 51.2345 21.7605C51.4614 21.5858 51.6162 21.3338 51.6695 21.0525L53.6274 13.7481H53.6867C54.3973 14.9621 55.7408 15.584 57.7247 15.584C59.827 15.584 61.7646 14.8733 63.4875 13.4224C65.22 11.9618 66.4499 9.99394 67.0036 7.7966C67.6168 5.51048 67.4367 3.64199 66.4632 2.19111V2.19852ZM61.8256 7.79475C61.5708 8.84081 60.9979 9.78216 60.186 10.4892C59.4493 11.148 58.4982 11.5163 57.51 11.5256C56.5329 11.5256 55.8204 11.1999 55.3818 10.5188C54.971 9.83782 54.9136 8.94952 55.2227 7.79475C55.826 5.54441 57.5248 4.06393 59.5087 4.06393C61.4333 4.05653 62.4234 5.56662 61.8256 7.78735V7.79475Z" fill="#2563EB"/>
<path d="M87.0716 0.532975H83.7849C83.4993 0.512547 83.2161 0.597782 82.9892 0.772473C82.7623 0.947164 82.6075 1.19913 82.5543 1.48048L82.4599 1.8358H82.4099C81.6382 0.621806 80.2947 0 78.3386 0C76.1771 0 74.2025 0.740242 72.4518 2.19112C70.7033 3.63167 69.4594 5.59191 68.9005 7.78735C68.2898 10.0673 68.4619 11.9623 69.4353 13.4132C70.4087 14.8641 71.9947 15.5747 74.1562 15.5747C76.0079 15.5998 77.8048 14.9469 79.2084 13.7389H79.2639L79.1769 14.0646C79.003 14.716 79.2417 15.0417 79.8931 15.0417H83.1798C83.8016 15.0417 84.2143 14.716 84.3882 14.0646L87.76 1.48048C87.9321 0.858681 87.6934 0.532975 87.0716 0.532975ZM80.7166 7.78735C80.4631 8.84456 79.8869 9.79664 79.0677 10.5114C78.3336 11.1659 77.3845 11.5275 76.401 11.5274C75.4239 11.5274 74.7188 11.1721 74.2802 10.4911C73.8416 9.81006 73.7898 8.89216 74.084 7.7966C74.3382 6.75026 74.9112 5.80871 75.7237 5.10212C76.4603 4.44335 77.4114 4.075 78.3997 4.06578C79.3768 4.06578 80.0818 4.4211 80.5204 5.10212C80.959 5.78314 81.0183 6.66218 80.7166 7.78735V7.78735Z" fill="#2563EB"/>
<path d="M107.65 0.53299H104.038C103.535 0.53299 103.087 0.769867 102.715 1.27323L97.2148 9.06058H97.1259L95.4012 1.24362C95.3216 0.769866 94.9996 0.53299 94.4759 0.53299H90.8616C90.1214 0.53299 89.6902 1.03636 89.8494 1.65816L92.8714 15.1306L88.6983 20.8674C88.2486 21.5485 88.3966 21.9926 89.1369 21.9926H92.8677C93.4007 21.9926 93.8189 21.7557 94.1631 21.2524L108.091 1.65076C108.539 0.978987 108.361 0.53299 107.65 0.53299Z" fill="#2563EB"/>
</g>
<defs>
<linearGradient id="paint0_linear_10_115" x1="1.89931" y1="17.1403" x2="45.9696" y2="-3.41069" gradientUnits="userSpaceOnUse">
<stop stop-color="#121630"/>
<stop offset="0.37" stop-color="#12163F"/>
<stop offset="1" stop-color="#121661"/>
</linearGradient>
<linearGradient id="paint1_linear_10_115" x1="1.89931" y1="17.1403" x2="45.9696" y2="-3.41067" gradientUnits="userSpaceOnUse">
<stop stop-color="#121630"/>
<stop offset="0.37" stop-color="#12163F"/>
<stop offset="1" stop-color="#121661"/>
</linearGradient>
<linearGradient id="paint2_linear_10_115" x1="1.89933" y1="17.1403" x2="45.9696" y2="-3.41065" gradientUnits="userSpaceOnUse">
<stop stop-color="#121630"/>
<stop offset="0.37" stop-color="#12163F"/>
<stop offset="1" stop-color="#121661"/>
</linearGradient>
<clipPath id="clip0_10_115">
<rect width="107.67" height="22" fill="white" transform="translate(0.664963)"/>
</clipPath>
</defs>
</svg>
